<svg width="215.000000" height="64.000000" viewBox="0 0 215 64" fill="none" xmlns="http://www.w3.org/2000/svg" xmlns:xlink="http://www.w3.org/1999/xlink">
	<desc>
			Created with Pixso.
	</desc>
	<defs/>
	<path id="Vector" d="M184.59 57.19L192.24 57.19L192.24 63.57L184.59 63.57L184.59 57.19Z" fill="#121723" fill-opacity="1.000000" fill-rule="nonzero"/>
	<path id="Vector" d="M160.99 63.57L152.7 63.57L163.97 33.82L172.47 33.82L183.74 63.57L175.45 63.57L173.53 58.26L162.9 58.26L160.99 63.57ZM164.82 52.73L171.62 52.73L168.22 42.74L164.82 52.73Z" fill="#121723" fill-opacity="1.000000" fill-rule="nonzero"/>
	<path id="Vector" d="M148.66 33.39C149.37 33.39 150.65 33.53 152.49 33.82L152.49 39.55L150.79 39.55C150.36 39.55 149.98 39.7 149.64 39.98C149.3 40.23 149.05 40.52 148.88 40.83L144.84 48.48L153.13 63.57L145.05 63.57L138.46 51.46L134.63 51.46L134.63 63.57L126.98 63.57L126.98 33.82L134.63 33.82L134.63 45.51L138.46 45.51L142.71 37.43C143.34 36.24 144.1 35.28 145.01 34.54C145.94 33.77 147.16 33.39 148.66 33.39Z" fill="#121723" fill-opacity="1.000000" fill-rule="nonzero"/>
	<path id="Vector" d="M114.22 53.79C110.81 54.08 107.6 54.22 104.56 54.22C101.56 54.22 99.4 53.57 98.1 52.26C96.79 50.96 96.14 48.92 96.14 46.14L96.14 33.82L103.8 33.82L103.8 46.14C103.8 46.79 103.98 47.32 104.35 47.72C104.75 48.08 105.27 48.27 105.92 48.27C108.25 48.27 111.01 48.13 114.22 47.84L114.22 33.82L121.87 33.82L121.87 63.57L114.22 63.57L114.22 53.79Z" fill="#121723" fill-opacity="1.000000" fill-rule="nonzero"/>
	<path id="Vector" d="M87.19 41.89C87.19 40.19 86.34 39.34 84.64 39.34L77.41 39.34C75.71 39.34 74.86 40.19 74.86 41.89L74.86 55.49C74.86 57.19 75.71 58.04 77.41 58.04L84.64 58.04C86.34 58.04 87.19 57.19 87.19 55.49L87.19 41.89ZM94.85 55.49C94.85 58.47 94.16 60.64 92.81 62C91.47 63.33 89.32 64 86.34 64L75.71 64C72.73 64 70.56 63.33 69.2 62C67.87 60.64 67.2 58.47 67.2 55.49L67.2 41.89C67.2 38.92 67.87 36.76 69.2 35.43C70.56 34.07 72.73 33.39 75.71 33.39L86.34 33.39C89.32 33.39 91.47 34.07 92.81 35.43C94.16 36.76 94.85 38.92 94.85 41.89L94.85 55.49Z" fill="#121723" fill-opacity="1.000000" fill-rule="nonzero"/>
	<path id="Vector" d="M58.27 63.57L50.61 63.57L50.61 39.77L41.68 39.77L41.68 33.82L67.2 33.82L67.2 39.77L58.27 39.77L58.27 63.57Z" fill="#121723" fill-opacity="1.000000" fill-rule="nonzero"/>
	<path id="Vector" d="M25.94 63.57L18.28 63.57L18.28 45.29L8.08 63.57L0 63.57L0 33.82L7.65 33.82L7.65 52.09L17.86 33.82L25.94 33.82L25.94 63.57Z" fill="#121723" fill-opacity="1.000000" fill-rule="nonzero"/>
	<path id="Vector" d="M183.53 18.06L183.53 12.53L215 12.53L215 18.06L183.53 18.06Z" fill="#121723" fill-opacity="1.000000" fill-rule="nonzero"/>
	<path id="Vector" d="M150.35 10.62L160.13 10.62C163.1 10.62 165.26 11.3 166.59 12.66C167.95 13.99 168.63 16.15 168.63 19.12L168.63 21.67C168.63 24.65 167.95 26.82 166.59 28.18C165.26 29.51 163.1 30.17 160.13 30.17L142.69 30.17L142.69 0.42L150.35 0.42L150.35 10.62ZM179.69 30.17L172.03 30.17L172.03 0.42L179.69 0.42L179.69 30.17ZM160.98 19.12C160.98 17.42 160.13 16.57 158.42 16.57L150.35 16.57L150.35 24.22L158.42 24.22C160.13 24.22 160.98 23.37 160.98 21.67L160.98 19.12Z" fill="#121723" fill-opacity="1.000000" fill-rule="nonzero"/>
	<path id="Vector" d="M139.28 29.75C132.96 30.32 127.72 30.6 123.55 30.6C120.77 30.6 118.73 29.95 117.43 28.64C116.12 27.34 115.47 25.3 115.47 22.52L115.47 8.92C115.47 5.95 116.14 3.79 117.47 2.46C118.83 1.1 121 0.42 123.98 0.42L139.28 0.42L139.28 6.37L125.68 6.37C123.98 6.37 123.12 7.22 123.12 8.92L123.12 22.52C123.12 23.17 123.31 23.7 123.68 24.1C124.07 24.46 124.57 24.65 125.17 24.65C125.76 24.65 126.41 24.65 127.12 24.65C127.83 24.62 128.57 24.59 129.33 24.56C130.1 24.53 130.86 24.51 131.63 24.48C132.42 24.45 133.43 24.39 134.65 24.31C135.89 24.22 137.44 24.12 139.28 24.01L139.28 29.75Z" fill="#121723" fill-opacity="1.000000" fill-rule="nonzero"/>
	<path id="Vector" d="M112.91 29.75C106.59 30.32 101.35 30.6 97.18 30.6C94.4 30.6 92.36 29.95 91.06 28.64C89.75 27.34 89.1 25.3 89.1 22.52L89.1 8.92C89.1 5.95 89.76 3.79 91.1 2.46C92.46 1.1 94.63 0.42 97.6 0.42L112.91 0.42L112.91 6.37L99.31 6.37C97.6 6.37 96.75 7.22 96.75 8.92L96.75 22.52C96.75 23.17 96.94 23.7 97.31 24.1C97.7 24.46 98.2 24.65 98.79 24.65C99.39 24.65 100.04 24.65 100.75 24.65C101.46 24.62 102.2 24.59 102.96 24.56C103.73 24.53 104.49 24.51 105.26 24.48C106.05 24.45 107.06 24.39 108.28 24.31C109.53 24.22 111.07 24.12 112.91 24.01L112.91 29.75Z" fill="#121723" fill-opacity="1.000000" fill-rule="nonzero"/>
	<path id="Vector" d="M78.02 8.5C78.02 6.8 77.17 5.95 75.47 5.95L68.24 5.95C66.54 5.95 65.69 6.8 65.69 8.5L65.69 22.1C65.69 23.8 66.54 24.65 68.24 24.65L75.47 24.65C77.17 24.65 78.02 23.8 78.02 22.1L78.02 8.5ZM85.68 22.1C85.68 25.07 85 27.24 83.64 28.6C82.3 29.93 80.15 30.6 77.17 30.6L66.54 30.6C63.56 30.6 61.39 29.93 60.03 28.6C58.7 27.24 58.03 25.07 58.03 22.1L58.03 8.5C58.03 5.52 58.7 3.37 60.03 2.04C61.39 0.68 63.56 0 66.54 0L77.17 0C80.15 0 82.3 0.68 83.64 2.04C85 3.37 85.68 5.52 85.68 8.5L85.68 22.1Z" fill="#121723" fill-opacity="1.000000" fill-rule="nonzero"/>
	<path id="Vector" d="M28.69 0.42L46.55 0.42C49.53 0.42 51.68 1.1 53.02 2.46C54.38 3.79 55.06 5.95 55.06 8.92L55.06 13.17C55.06 16.15 54.38 18.31 53.02 19.67C51.68 21.01 49.53 21.67 46.55 21.67L36.35 21.67L36.35 30.17L28.69 30.17L28.69 0.42ZM47.4 8.92C47.4 7.22 46.55 6.37 44.85 6.37L36.35 6.37L36.35 15.72L44.85 15.72C46.55 15.72 47.4 14.87 47.4 13.17L47.4 8.92Z" fill="#121723" fill-opacity="1.000000" fill-rule="nonzero"/>
	<path id="Vector" d="M21.68 0C22.39 0 23.67 0.14 25.51 0.42L25.51 6.16L23.81 6.16C23.38 6.16 23 6.3 22.66 6.58C22.32 6.84 22.07 7.12 21.9 7.43L17.86 15.08L26.15 30.17L18.07 30.17L11.48 18.06L7.65 18.06L7.65 30.17L0 30.17L0 0.42L7.65 0.42L7.65 12.11L11.48 12.11L15.73 4.03C16.35 2.84 17.12 1.88 18.03 1.14C18.96 0.38 20.18 0 21.68 0Z" fill="#121723" fill-opacity="1.000000" fill-rule="nonzero"/>
</svg>
