<svg width="300.000000" height="29.694580" viewBox="0 0 300 29.6946" fill="none" xmlns="http://www.w3.org/2000/svg" xmlns:xlink="http://www.w3.org/1999/xlink">
	<desc>
			Created with Pixso.
	</desc>
	<defs>
		<filter id="filter_22_2575_dd" x="267.138672" y="0.305664" width="30.656250" height="29.388916" filterUnits="userSpaceOnUse" color-interpolation-filters="sRGB">
			<feFlood flood-opacity="0" result="BackgroundImageFix"/>
			<feColorMatrix in="SourceAlpha" type="matrix" values="0 0 0 0 0 0 0 0 0 0 0 0 0 0 0 0 0 0 127 0" result="hardAlpha"/>
			<feOffset dx="0" dy="4"/>
			<feGaussianBlur stdDeviation="1.33333"/>
			<feComposite in2="hardAlpha" operator="out" k2="-1" k3="1"/>
			<feColorMatrix type="matrix" values="0 0 0 0 0 0 0 0 0 0 0 0 0 0 0 0 0 0 0.25 0"/>
			<feBlend mode="normal" in2="BackgroundImageFix" result="effect_dropShadow_1"/>
			<feBlend mode="normal" in="SourceGraphic" in2="effect_dropShadow_1" result="shape"/>
		</filter>
	</defs>
	<path id="Vector" d="M294.41 17.11L300 17.11L300 21.69L294.41 21.69L294.41 17.11Z" fill="#FFFFFF" fill-opacity="1.000000" fill-rule="nonzero"/>
	<g filter="url(#filter_22_2575_dd)">
		<path id="Vector" d="M277.19 21.69L271.13 21.69L279.36 0.3L285.57 0.3L293.79 21.69L287.74 21.69L286.34 17.87L278.58 17.87L277.19 21.69ZM279.98 13.9L284.94 13.9L282.46 6.72L279.98 13.9Z" fill="#FFFFFF" fill-opacity="1.000000" fill-rule="nonzero"/>
	</g>
	<path id="Vector" d="M268.19 0C268.71 0 269.64 0.1 270.98 0.3L270.98 4.43L269.74 4.43C269.43 4.43 269.15 4.53 268.91 4.73C268.66 4.91 268.47 5.12 268.35 5.34L265.4 10.84L271.45 21.69L265.55 21.69L260.74 12.98L257.95 12.98L257.95 21.69L252.36 21.69L252.36 0.3L257.95 0.3L257.95 8.7L260.74 8.7L263.85 2.9C264.3 2.04 264.86 1.35 265.52 0.82C266.2 0.27 267.1 0 268.19 0Z" fill="#FFFFFF" fill-opacity="1.000000" fill-rule="nonzero"/>
	<path id="Vector" d="M243.05 14.66C240.57 14.87 238.22 14.97 236 14.97C233.81 14.97 232.24 14.5 231.29 13.56C230.34 12.62 229.86 11.16 229.86 9.16L229.86 0.3L235.44 0.3L235.44 9.16C235.44 9.63 235.58 10.01 235.85 10.29C236.14 10.56 236.52 10.69 237 10.69C238.69 10.69 240.71 10.59 243.05 10.38L243.05 0.3L248.64 0.3L248.64 21.69L243.05 21.69L243.05 14.66Z" fill="#FFFFFF" fill-opacity="1.000000" fill-rule="nonzero"/>
	<path id="Vector" d="M223.33 6.11C223.33 4.88 222.71 4.27 221.46 4.27L216.19 4.27C214.95 4.27 214.33 4.88 214.33 6.11L214.33 15.88C214.33 17.11 214.95 17.72 216.19 17.72L221.46 17.72C222.71 17.72 223.33 17.11 223.33 15.88L223.33 6.11ZM228.91 15.88C228.91 18.02 228.42 19.58 227.42 20.56C226.45 21.52 224.88 22 222.71 22L214.95 22C212.77 22 211.19 21.52 210.2 20.56C209.23 19.58 208.74 18.02 208.74 15.88L208.74 6.11C208.74 3.97 209.23 2.42 210.2 1.46C211.19 0.48 212.77 0 214.95 0L222.71 0C224.88 0 226.45 0.48 227.42 1.46C228.42 2.42 228.91 3.97 228.91 6.11L228.91 15.88Z" fill="#FFFFFF" fill-opacity="1.000000" fill-rule="nonzero"/>
	<path id="Vector" d="M202.22 21.69L196.63 21.69L196.63 4.58L190.11 4.58L190.11 0.3L208.74 0.3L208.74 4.58L202.22 4.58L202.22 21.69Z" fill="#FFFFFF" fill-opacity="1.000000" fill-rule="nonzero"/>
	<path id="Vector" d="M178.62 21.69L173.04 21.69L173.04 8.55L165.59 21.69L159.69 21.69L159.69 0.3L165.28 0.3L165.28 13.44L172.73 0.3L178.62 0.3L178.62 21.69Z" fill="#FFFFFF" fill-opacity="1.000000" fill-rule="nonzero"/>
	<path id="Vector" d="M133.94 12.98L133.94 9.01L156.9 9.01L156.9 12.98L133.94 12.98Z" fill="#FFFFFF" fill-opacity="1.000000" fill-rule="nonzero"/>
	<path id="Vector" d="M109.72 7.63L116.86 7.63C119.03 7.63 120.61 8.12 121.58 9.1C122.57 10.06 123.07 11.61 123.07 13.75L123.07 15.58C123.07 17.72 122.57 19.28 121.58 20.25C120.61 21.21 119.03 21.69 116.86 21.69L104.14 21.69L104.14 0.3L109.72 0.3L109.72 7.63ZM131.14 21.69L125.55 21.69L125.55 0.3L131.14 0.3L131.14 21.69ZM117.48 13.75C117.48 12.52 116.86 11.91 115.62 11.91L109.72 11.91L109.72 17.41L115.62 17.41C116.86 17.41 117.48 16.8 117.48 15.58L117.48 13.75Z" fill="#FFFFFF" fill-opacity="1.000000" fill-rule="nonzero"/>
	<path id="Vector" d="M101.65 21.38C97.03 21.79 93.21 22 90.16 22C88.14 22 86.65 21.53 85.7 20.59C84.75 19.65 84.27 18.19 84.27 16.19L84.27 6.41C84.27 4.27 84.75 2.72 85.73 1.77C86.72 0.79 88.3 0.3 90.48 0.3L101.65 0.3L101.65 4.58L91.72 4.58C90.48 4.58 89.85 5.19 89.85 6.41L89.85 16.19C89.85 16.66 89.99 17.04 90.26 17.32C90.55 17.58 90.91 17.72 91.34 17.72C91.78 17.72 92.25 17.72 92.77 17.72C93.29 17.7 93.83 17.68 94.39 17.66C94.94 17.64 95.5 17.62 96.06 17.6C96.64 17.57 97.38 17.53 98.27 17.47C99.18 17.41 100.3 17.34 101.65 17.26L101.65 21.38Z" fill="#FFFFFF" fill-opacity="1.000000" fill-rule="nonzero"/>
	<path id="Vector" d="M82.4 21.38C77.79 21.79 73.96 22 70.92 22C68.89 22 67.4 21.53 66.45 20.59C65.5 19.65 65.02 18.19 65.02 16.19L65.02 6.41C65.02 4.27 65.51 2.72 66.48 1.77C67.47 0.79 69.06 0.3 71.23 0.3L82.4 0.3L82.4 4.58L72.47 4.58C71.23 4.58 70.61 5.19 70.61 6.41L70.61 16.19C70.61 16.66 70.74 17.04 71.01 17.32C71.3 17.58 71.66 17.72 72.1 17.72C72.53 17.72 73.01 17.72 73.53 17.72C74.04 17.7 74.58 17.68 75.14 17.66C75.7 17.64 76.26 17.62 76.82 17.6C77.4 17.57 78.13 17.53 79.02 17.47C79.93 17.41 81.06 17.34 82.4 17.26L82.4 21.38Z" fill="#FFFFFF" fill-opacity="1.000000" fill-rule="nonzero"/>
	<path id="Vector" d="M56.94 6.11C56.94 4.88 56.32 4.27 55.08 4.27L49.8 4.27C48.56 4.27 47.94 4.88 47.94 6.11L47.94 15.88C47.94 17.11 48.56 17.72 49.8 17.72L55.08 17.72C56.32 17.72 56.94 17.11 56.94 15.88L56.94 6.11ZM62.53 15.88C62.53 18.02 62.03 19.58 61.04 20.56C60.06 21.52 58.49 22 56.32 22L48.56 22C46.39 22 44.8 21.52 43.81 20.56C42.84 19.58 42.35 18.02 42.35 15.88L42.35 6.11C42.35 3.97 42.84 2.42 43.81 1.46C44.8 0.48 46.39 0 48.56 0L56.32 0C58.49 0 60.06 0.48 61.04 1.46C62.03 2.42 62.53 3.97 62.53 6.11L62.53 15.88Z" fill="#FFFFFF" fill-opacity="1.000000" fill-rule="nonzero"/>
	<path id="Vector" d="M20.94 0.3L33.97 0.3C36.15 0.3 37.72 0.79 38.69 1.77C39.68 2.72 40.18 4.27 40.18 6.41L40.18 9.47C40.18 11.61 39.68 13.16 38.69 14.14C37.72 15.1 36.15 15.58 33.97 15.58L26.52 15.58L26.52 21.69L20.94 21.69L20.94 0.3ZM34.59 6.41C34.59 5.19 33.97 4.58 32.73 4.58L26.52 4.58L26.52 11.3L32.73 11.3C33.97 11.3 34.59 10.69 34.59 9.47L34.59 6.41Z" fill="#FFFFFF" fill-opacity="1.000000" fill-rule="nonzero"/>
	<path id="Vector" d="M15.82 0C16.34 0 17.27 0.1 18.62 0.3L18.62 4.43L17.38 4.43C17.07 4.43 16.79 4.53 16.54 4.73C16.29 4.91 16.1 5.12 15.98 5.34L13.03 10.84L19.08 21.69L13.18 21.69L8.37 12.98L5.58 12.98L5.58 21.69L0 21.69L0 0.3L5.58 0.3L5.58 8.7L8.37 8.7L11.48 2.9C11.93 2.04 12.49 1.35 13.16 0.82C13.84 0.27 14.73 0 15.82 0Z" fill="#FFFFFF" fill-opacity="1.000000" fill-rule="nonzero"/>
</svg>
